<svg xmlns="http://www.w3.org/2000/svg" width="297.748" height="370.907" viewBox="0 0 297.748 370.907">
  <g id="Group_1834" data-name="Group 1834" transform="translate(-534.102 -373.989)">
    <path id="Path_2911" data-name="Path 2911" d="M534.1,405.342a31,31,0,0,1,31.351-31.353c19.121,0,32.122,14.53,32.122,31.353s-14.53,32.122-32.122,32.122C548.632,437.464,534.1,422.167,534.1,405.342Zm0,74.181c0-19.117,14.53-32.118,31.351-32.118,17.592,0,32.122,15.295,32.122,32.118s-14.53,31.355-32.122,31.355C548.632,510.878,534.1,496.348,534.1,479.523Zm63.473,71.123c0,16.825-14.53,32.118-32.122,32.118-16.821,0-31.351-15.293-31.351-32.118s14.53-31.355,31.351-31.355C584.574,519.291,597.575,533.821,597.575,550.646Zm-42.061-145.3c0,6.119,3.824,10.706,9.939,10.706,6.882,0,10.706-4.587,10.706-10.706s-3.824-10.706-10.706-10.706C561.63,394.636,555.514,399.227,555.514,405.342Zm0,74.181c0,3.824,3.824,9.943,9.939,9.943,6.882,0,10.706-3.824,10.706-9.943,0-6.882-3.824-10.706-10.706-10.706C561.63,468.817,555.514,474.936,555.514,479.523Zm20.645,71.123c0-6.115-3.824-9.939-10.706-9.939-6.115,0-9.939,3.824-9.939,9.939,0,6.882,3.824,10.706,9.939,10.706C572.335,561.352,576.159,557.528,576.159,550.646ZM831.588,610.3v45.887c0,35.942-21.412,67.3-55.061,82.592a104.335,104.335,0,0,1-33.651,6.119c-22.942,0-46.65-8.411-63.475-25.238,0,0-62.708-63.473-75.709-75.71a34.232,34.232,0,0,1,0-46.652,32.777,32.777,0,0,1,46.648,0l22.946,22.944c6.115,6.882,6.115,0,6.115-1.528V479.523c0-19.117,15.3-33.649,33.651-32.118,16.827,0,32.12,15.295,32.12,32.118v67.3l54.3,19.121C820.882,572.058,833.884,591.179,831.588,610.3ZM608.281,405.342c0-16.823,14.532-31.353,31.353-31.353s31.357,14.53,31.357,31.353-14.532,32.122-31.357,32.122S608.281,422.167,608.281,405.342Zm0,74.181c0-19.117,14.532-32.118,31.353-32.118s31.357,15.295,31.357,32.118-14.532,31.355-31.357,31.355S608.281,496.348,608.281,479.523Zm0,71.123c0-16.825,14.532-31.355,31.353-31.355s31.357,14.53,31.357,31.355-14.532,32.118-31.357,32.118S608.281,567.471,608.281,550.646Zm204.19,61.18c0-9.939-8.411-20.647-19.119-25.236L729.88,563.647a12.206,12.206,0,0,1-6.121-10.706V479.523c0-6.882-6.119-10.706-12.234-10.706-6.886,0-10.706,3.824-10.706,10.706V618.712c0,9.939-2.3,20.645-10.706,25.236-8.415,3.824-20.651,0-27.531-6.886l-22.946-22.941c-2.292-2.3-4.587-3.824-8.411-3.824-4.587,0-6.119,1.528-8.411,3.824-4.591,6.119-4.591,13,0,16.825,0,0,55.061,55.061,73.414,74.181,19.12,18.355,48.945,25.238,74.181,14.53a69.406,69.406,0,0,0,42.063-63.473ZM628.928,405.342a10.706,10.706,0,1,0,10.706-10.706A10.455,10.455,0,0,0,628.928,405.342Zm0,74.181c0,3.824,4.591,9.943,10.706,9.943s10.706-3.824,10.706-9.943c0-6.882-4.587-10.706-10.706-10.706S628.928,474.936,628.928,479.523Zm0,71.123c0,6.882,4.591,10.706,10.706,10.706s10.706-3.824,10.706-10.706c0-6.115-4.587-9.939-10.706-9.939S628.928,544.531,628.928,550.646Zm52.769-145.3c0-16.823,14.53-31.353,31.355-31.353s32.12,14.53,32.12,31.353-15.293,32.122-32.12,32.122S681.7,422.167,681.7,405.342Zm21.412,0c0,6.119,3.824,10.706,9.943,10.706,6.882,0,10.706-4.587,10.706-10.706s-3.824-10.706-10.706-10.706C706.933,394.636,703.11,399.227,703.11,405.342Z" transform="translate(0 0)" fill="#002333"/>
  </g>
</svg>