<svg xmlns="http://www.w3.org/2000/svg" width="384" height="315.526" viewBox="0 0 384 315.526">
  <g id="Group_1841" data-name="Group 1841" transform="translate(-487.985 -343.368)">
    <path id="Path_2921" data-name="Path 2921" d="M871.985,510.6v96.234c0,28.4-24.407,52.062-53.7,52.062H721.477c-29.288,0-53.695-23.665-53.695-52.062v-6.311H531.1c-22.781,0-43.118-19.719-43.118-41.805V384.388c0-21.3,20.337-41.02,43.118-41.02H797.951c22.779,0,42.3,19.721,42.3,41.02v82.825A57.979,57.979,0,0,1,871.985,510.6ZM510.764,421.462H818.29V384.388c0-8.679-8.949-17.355-20.339-19.723H531.1c-11.391,0-20.339,8.679-20.339,19.723Zm208.273,41.805H818.29V445.914H510.764v56.008H667.782C672.661,478.257,694.63,463.267,719.037,463.267ZM667.782,580.8V524.007H510.764v37.074c0,11.044,8.949,19.721,20.339,19.721Zm-29.288-187.74c0,7.1-6.509,11.044-13.018,11.044H542.492c-7.323,0-11.389-3.944-11.389-11.044,0-6.309,4.066-10.253,11.389-10.253H627.1C631.984,382.809,638.493,386.753,638.493,393.063Zm0,78.883c0,6.311-6.509,11.042-13.018,11.042H542.492c-7.323,0-11.389-4.731-11.389-11.042,0-7.1,4.066-11.044,11.389-11.044H627.1C631.984,460.9,638.493,464.847,638.493,471.945Zm-96,67.05H627.1c7.321,0,11.391,4.731,11.391,11.042s-6.509,11.044-13.018,11.044H542.492c-4.881,0-11.389-4.733-11.389-11.044S535.169,539,542.492,539Zm306.714,70.2V512.963c0-17.353-15.46-29.976-30.916-29.976H717.409c-17.9,0-31.73,14.988-31.73,29.976V609.2c0,17.355,15.458,29.976,31.73,29.976H818.29C836.19,639.175,849.206,624.185,849.206,609.2Zm-17.9-100.18v75.726c0,6.311-4.068,11.044-10.577,11.044H804.46v14.986c0,7.1-4.068,11.044-11.391,11.044H741.816c-6.509,0-11.391-3.944-11.391-11.044V595.79H714.967c-6.507,0-11.389-4.733-11.389-11.044V509.02c0-7.1,4.881-11.044,11.389-11.044h107.39C827.239,497.975,831.306,500.343,831.306,509.02Zm-21.965,67.05V521.642H795.509v22.084c0,6.311-4.066,11.044-11.389,11.044-6.507,0-10.577-4.733-10.577-11.044V521.642h-8.949v22.084c0,6.311-4.881,11.044-11.388,11.044s-11.391-4.733-11.391-11.044V521.642h-13.83v54.427h16.27c6.507,0,11.391,4.733,11.391,11.042V602.1H784.12V587.111c0-6.309,4.881-11.042,11.389-11.042h13.832ZM756.46,382.809c6.507,0,11.389,4.733,11.389,11.042,0,5.522-5.7,10.255-11.389,10.255-4.881,0-10.577-4.733-10.577-10.255S750.763,382.809,756.46,382.809Zm30.1,0c6.509,0,10.577,4.733,10.577,10.253a10.777,10.777,0,0,1-10.577,11.044c-6.507,0-11.389-4.733-11.389-11.044C775.172,387.542,780.053,382.809,786.56,382.809Z" transform="translate(0)" fill="#001b26"/>
  </g>
</svg>