<svg xmlns="http://www.w3.org/2000/svg" width="381.5" height="300.168" viewBox="0 0 381.5 300.168">
  <g id="Group_1833" data-name="Group 1833" transform="translate(-254.47 -285.578)">
    <path id="Path_2910" data-name="Path 2910" d="M635.97,396.249V537.116c0,27.666-23.476,48.63-48.63,48.63H303.106c-28.512,0-48.636-23.482-48.636-48.63V393.737c0-22.636,15.934-41.922,36.892-46.118V322.47c0-20.964,15.934-36.892,36.892-36.892h15.934c20.958,0,36.892,15.928,36.892,36.892v25.148h23.476V296.477c0-1.679,0-9.22,2.512-9.22,1.678,0,6.708-1.679,9.226-1.679H570.572c7.548,0,11.738,4.19,11.738,10.9v51.142h5.03C612.494,347.619,633.452,368.583,635.97,396.249ZM612.494,537.116V398.767c0-14.25-11.738-25.988-25.154-25.988h-7.548v76.3h5.03a11.738,11.738,0,1,1,0,23.476H399.527c-6.708,0-10.9-5.03-10.9-11.732s6.708-11.744,10.9-13.416V371.1H376.885V511.961a36.68,36.68,0,0,1-36.892,36.892h-14.25c-20.964,0-36.892-15.934-36.892-36.892V372.779c-6.708,5.03-14.256,14.25-14.256,23.47V537.116c0,14.25,11.738,25.148,25.994,25.148H584.822a25.228,25.228,0,0,0,25.16-25.148ZM314,509.45a14.1,14.1,0,0,0,14.25,14.25h13.417c7.548,0,14.256-5.036,14.256-14.25V322.47c0-7.548-5.036-14.256-14.256-14.256H328.255A14.1,14.1,0,0,0,314,322.47Zm164.337,15.928c0,7.542-4.19,11.738-11.738,11.738H399.527c-6.708,0-10.9-4.2-10.9-11.738,0-6.714,4.19-10.9,10.9-10.9h69.588C475.824,514.479,478.342,518.664,478.342,525.378Zm78.814-217.163H427.193V449.075H557.156ZM450.669,363.553h85.522a11.738,11.738,0,0,1,0,23.476H450.669a11.738,11.738,0,0,1,0-23.476Zm0,39.4h85.522a11.741,11.741,0,0,1,0,23.482H450.669a11.741,11.741,0,0,1,0-23.482Zm46.118-78.814h39.4a11.738,11.738,0,0,1,0,23.476h-39.4a11.738,11.738,0,1,1,0-23.476Zm88.034,212.973h-18.44c-6.708,0-11.744-4.2-11.744-11.738,0-6.714,5.036-10.9,11.744-10.9h18.44c6.708,0,11.744,4.184,11.744,10.9C596.566,532.919,591.53,537.116,584.822,537.116Z" transform="translate(0)" fill="#002333"/>
  </g>
</svg>