<svg xmlns="http://www.w3.org/2000/svg" width="443.546" height="330.656" viewBox="0 0 443.546 330.656">
  <g id="Group_1832" data-name="Group 1832" transform="translate(-270.729 -391.883)">
    <path id="Path_2909" data-name="Path 2909" d="M714.275,552.8c0,50.44-42.435,92.875-92.873,92.875H608.593V669.7c0,28.82-24.819,52.841-53.641,52.841h-125.7c-28.825,0-52.841-24.021-52.841-52.841V645.68H345.988c-42.432,0-75.259-33.627-75.259-75.259,0-42.432,32.827-75.259,75.259-75.259,4,0,10.409,2.4,17.616,2.4,8.806-60.049,61.647-105.682,123.293-105.682,48.84,0,94.476,28.02,114.488,72.856,7.208-2.4,13.612-2.4,20.017-2.4C671.84,462.335,714.275,501.566,714.275,552.8Zm-24.819,2.4c0-40.032-32.827-71.255-70.455-71.255-6.4,0-12.81,2.4-21.618,4.8-4.8,2.4-11.209,0-13.61-6.4C568.561,439.917,530.933,413.5,486.9,413.5c-55.242,0-101.678,44.033-104.079,99.277,0,4.8-1.6,6.4-4,8.808-4.8,2.4-6.4,2.4-11.209,0a68.593,68.593,0,0,0-21.618-4c-31.223,0-53.641,24.018-53.641,52.841s24.821,52.841,53.641,52.841h30.426V568.017c0-21.615,13.61-40.029,32.824-48.837,0-10.409,8.808-19.217,20.017-19.217h33.624c10.409,0,17.614,6.407,19.217,17.616h71.252c30.426,0,55.245,21.615,55.245,50.438v55.245H621.4C659.033,623.262,689.456,594.439,689.456,555.208ZM586.175,567.217c0-17.614-12.81-30.423-30.423-30.423H485.3V668.9a19.822,19.822,0,0,1-20.017,20.017H430.055A19.822,19.822,0,0,1,410.038,668.9V545.6c-6.4,6.4-11.209,15.21-11.209,24.018V668.9c0,17.614,13.612,30.426,31.226,30.426h125.7c17.614,0,30.423-12.812,30.423-30.426ZM431.656,669.7h31.223V521.584H431.656Zm64.05-84.067V568.017c0-6.4,6.4-12.809,12.81-12.809h46.436c7.2,0,13.61,6.4,13.61,12.809v17.614c0,6.4-6.4,13.61-13.61,13.61H508.515C502.11,599.241,495.706,594.439,495.706,585.631Zm12.009,24.821a10.6,10.6,0,0,1,10.409,10.409c0,6.4-5.6,11.206-10.409,11.206-5.6,0-11.209-5.6-11.209-11.206S501.31,610.452,507.715,610.452Zm10.409,36.028a10.946,10.946,0,0,1-11.209,11.209c-5.6,0-10.409-4.8-10.409-11.209a10.6,10.6,0,0,1,10.409-10.409C513.319,636.071,518.124,640.875,518.124,646.48Zm0,26.419a10.946,10.946,0,0,1-11.209,11.209c-5.6,0-10.409-4.8-10.409-11.209a10.6,10.6,0,0,1,10.409-10.409C513.319,662.49,518.124,666.494,518.124,672.9Zm15.21-62.447a10.6,10.6,0,0,1,10.409,10.409c0,6.4-5.6,11.206-10.409,11.206-5.6,0-11.209-5.6-11.209-11.206S526.929,610.452,533.334,610.452Zm10.409,36.828c0,5.6-5.6,10.409-11.209,10.409a10.6,10.6,0,0,1-10.409-10.409c0-6.4,4.8-11.209,10.409-11.209S543.742,641.676,543.742,647.28Zm0,26.422c0,5.6-5.6,10.406-11.209,10.406A10.6,10.6,0,0,1,522.125,673.7c0-6.407,4.8-11.212,10.409-11.212S543.742,668.095,543.742,673.7Zm14.413-63.25c6.4,0,11.209,4,11.209,10.409a11.452,11.452,0,0,1-11.209,11.206c-5.607,0-10.409-4.8-10.409-11.206A10.09,10.09,0,0,1,558.155,610.452Zm11.209,36.828c0,5.6-5.607,10.409-11.209,10.409a10.091,10.091,0,0,1-10.409-10.409c0-5.6,4.8-11.209,10.409-11.209S569.364,641.676,569.364,647.28Zm0,26.422c0,5.6-5.607,10.406-11.209,10.406A10.6,10.6,0,0,1,547.746,673.7c0-6.407,4.8-11.212,10.409-11.212S569.364,668.095,569.364,673.7Z" transform="translate(0 0)" fill="#002333"/>
  </g>
</svg>